<svg xmlns="http://www.w3.org/2000/svg" width="24" height="24" viewBox="0 0 24 24" fill="none" stroke="currentColor" stroke-width="2" stroke-linecap="round" stroke-linejoin="round" class="lucide lucide-utensils-crossed"><path d="m16 2-2.3 2.3a3 3 0 0 0 0 4.2l1.8 1.8a3 3 0 0 0 4.2 0L22 8"/><path d="M15 15 3.3 3.3a4.2 4.2 0 0 0 0 6l7.3 7.3c.7.7 1.8.7 2.5 0l2.3-2.3"/><path d="M3.3 15.7c-1 1-1 2.5 0 3.5l2.5 2.5c1 1 2.5 1 3.5 0l1.8-1.8"/><path d="M20.7 3.3c1-1 2.5-1 3.5 0l-2.5 2.5c-1-1-2.5-1-3.5 0L16 8"/></svg>